<?xml version="1.0" encoding="UTF-8" standalone="no"?>
<svg
   width="100"
   height="100"
   viewBox="0 0 100 100"
   fill="none"
   version="1.1"
   id="svg1"
   sodipodi:docname="github.svg"
   inkscape:version="1.3.2 (091e20e, 2023-11-25, custom)"
   xmlns:inkscape="http://www.inkscape.org/namespaces/inkscape"
   xmlns:sodipodi="http://sodipodi.sourceforge.net/DTD/sodipodi-0.dtd"
   xmlns="http://www.w3.org/2000/svg"
   xmlns:svg="http://www.w3.org/2000/svg">
  <defs
     id="defs1" />
  <sodipodi:namedview
     id="namedview1"
     pagecolor="#ffffff"
     bordercolor="#000000"
     borderopacity="0.25"
     inkscape:showpageshadow="2"
     inkscape:pageopacity="0.0"
     inkscape:pagecheckerboard="0"
     inkscape:deskcolor="#d1d1d1"
     inkscape:zoom="1.4501213"
     inkscape:cx="67.925351"
     inkscape:cy="15.515943"
     inkscape:window-width="1366"
     inkscape:window-height="745"
     inkscape:window-x="-8"
     inkscape:window-y="-8"
     inkscape:window-maximized="1"
     inkscape:current-layer="svg1" />
  <path
     fill-rule="evenodd"
     clip-rule="evenodd"
     d="M 49.737144,0 C 22.257371,0 0,22.257371 0,49.737144 c 0,22.008683 14.237257,40.597939 34.007771,47.188112 2.486857,0.435201 3.419428,-1.056916 3.419428,-2.362516 0,-1.181255 -0.06217,-5.098055 -0.06217,-9.26354 -12.496457,2.300343 -15.729371,-3.046401 -16.724114,-5.844114 -0.559543,-1.429944 -2.984229,-5.844118 -5.098057,-7.025373 -1.7408,-0.932571 -4.227657,-3.232914 -0.06217,-3.295086 3.9168,-0.06217 6.714514,3.605943 7.647085,5.098059 4.476343,7.522743 11.626057,5.408913 14.485943,4.103313 0.4352,-3.232914 1.7408,-5.408913 3.170742,-6.652344 -11.066513,-1.243428 -22.630399,-5.533257 -22.630399,-24.557711 0,-5.408917 1.927314,-9.885259 5.098057,-13.366859 -0.497371,-1.243428 -2.238172,-6.341485 0.497371,-13.180342 0,0 4.165486,-1.3056 13.677714,5.098056 3.978971,-1.119085 8.206628,-1.678628 12.434285,-1.678628 4.227657,0 8.455314,0.559543 12.434286,1.678628 9.512229,-6.465828 13.677714,-5.098056 13.677714,-5.098056 2.735544,6.838857 0.994743,11.936914 0.497373,13.180342 3.170742,3.4816 5.098056,7.89577 5.098056,13.366859 0,19.086626 -11.626056,23.314283 -22.692569,24.557711 1.802969,1.554288 3.357254,4.538513 3.357254,9.201372 0,6.652344 -0.06217,11.999084 -0.06217,13.677713 0,1.3056 0.93257,2.859889 3.419426,2.362516 C 85.237028,90.335083 99.474283,71.683655 99.474283,49.737144 99.474283,22.257371 77.216911,0 49.737144,0 Z"
     fill="#1b1f23"
     id="path1"
     style="stroke-width:6.21714" />
</svg>
