<?xml version="1.0" encoding="UTF-8" standalone="no"?>
<!-- Uploaded to: SVG Repo, www.svgrepo.com, Generator: SVG Repo Mixer Tools -->

<svg
   height="100"
   width="100"
   version="1.1"
   id="Layer_1"
   viewBox="0 0 47.75 47.75"
   xml:space="preserve"
   sodipodi:docname="linkedin.svg"
   inkscape:version="1.3.2 (091e20e, 2023-11-25, custom)"
   xmlns:inkscape="http://www.inkscape.org/namespaces/inkscape"
   xmlns:sodipodi="http://sodipodi.sourceforge.net/DTD/sodipodi-0.dtd"
   xmlns="http://www.w3.org/2000/svg"
   xmlns:svg="http://www.w3.org/2000/svg"><defs
   id="defs1" /><sodipodi:namedview
   id="namedview1"
   pagecolor="#ffffff"
   bordercolor="#000000"
   borderopacity="0.25"
   inkscape:showpageshadow="2"
   inkscape:pageopacity="0.0"
   inkscape:pagecheckerboard="0"
   inkscape:deskcolor="#d1d1d1"
   inkscape:zoom="2.625"
   inkscape:cx="99.428572"
   inkscape:cy="64.952381"
   inkscape:window-width="1366"
   inkscape:window-height="745"
   inkscape:window-x="-8"
   inkscape:window-y="-8"
   inkscape:window-maximized="1"
   inkscape:current-layer="Layer_1" />
<path
   style="fill:#0077b7;stroke-width:0.124286"
   d="M 43.182448,0 H 4.2946928 C 1.9228241,0 0,1.9228241 0,4.2946928 V 43.182325 c 0,2.371992 1.9228241,4.294814 4.2946928,4.294814 H 43.182325 c 2.371992,0 4.294814,-1.922822 4.294814,-4.294814 V 4.2946928 C 47.477139,1.9228241 45.554317,0 43.182448,0 Z M 14.691441,40.994894 c 0,0.690285 -0.559535,1.24982 -1.249818,1.24982 H 8.1214495 c -0.6902825,0 -1.2498172,-0.559535 -1.2498172,-1.24982 V 18.692943 c 0,-0.690282 0.5595347,-1.249816 1.2498172,-1.249816 h 5.3201735 c 0.690283,0 1.249818,0.559534 1.249818,1.249816 z M 10.781537,15.340833 c -2.7913331,0 -5.054203,-2.262869 -5.054203,-5.054202 0,-2.7913329 2.2628699,-5.0542027 5.054203,-5.0542027 2.791332,0 5.054202,2.2628698 5.054202,5.0542027 0,2.791333 -2.262745,5.054202 -5.054202,5.054202 z m 31.712989,25.754733 c 0,0.634604 -0.514544,1.149148 -1.149145,1.149148 h -5.70894 c -0.634603,0 -1.149146,-0.514544 -1.149146,-1.149148 V 30.634687 c 0,-1.560532 0.457745,-6.838324 -4.078187,-6.838324 -3.518403,0 -4.232052,3.612489 -4.375354,5.233671 v 12.065532 c 0,0.634604 -0.514418,1.149148 -1.149145,1.149148 h -5.521517 c -0.634603,0 -1.149146,-0.514544 -1.149146,-1.149148 V 18.592272 c 0,-0.634603 0.514543,-1.149145 1.149146,-1.149145 h 5.521517 c 0.634603,0 1.149145,0.514542 1.149145,1.149145 v 1.945693 c 1.304628,-1.957873 3.243484,-3.469063 7.371634,-3.469063 9.141461,0 9.089138,8.540417 9.089138,13.232948 z"
   id="path1" />
</svg>
